<svg width="75" height="54" viewBox="0 0 75 54" fill="none" xmlns="http://www.w3.org/2000/svg">
<path d="M74.5607 12.2761C75.1464 11.6903 75.1464 10.7405 74.5607 10.1547L65.0147 0.608791C64.4289 0.0230045 63.4792 0.0230045 62.8934 0.608791C62.3076 1.19458 62.3076 2.14433 62.8934 2.73011L71.3787 11.2154L62.8934 19.7007C62.3076 20.2865 62.3076 21.2362 62.8934 21.822C63.4792 22.4078 64.4289 22.4078 65.0147 21.822L74.5607 12.2761ZM1.5 52.7846L2.94115 53.2006C6.75623 39.9848 26.1696 12.7154 73.5 12.7154V11.2154V9.71539C24.8304 9.71539 4.24377 37.8716 0.0588466 52.3686L1.5 52.7846Z" fill="black"/>
</svg>
