<svg width="95" height="30" viewBox="0 0 95 30" fill="none" xmlns="http://www.w3.org/2000/svg">
<g clip-path="url(#clip0_2823_34038)">
<mask id="mask0_2823_34038" style="mask-type:luminance" maskUnits="userSpaceOnUse" x="0" y="0" width="36" height="30">
<path d="M19.7356 11.9352C19.786 12.0371 19.8514 12.1398 19.9352 12.2249C20.1022 12.396 20.3345 12.4979 20.5846 12.4979H35.0818C35.2488 12.4979 35.4158 12.4462 35.5479 12.3626C35.68 12.2789 35.798 12.158 35.8819 12.0036C35.965 11.8493 35.9976 11.6972 35.9813 11.5261C35.9813 11.355 35.9145 11.203 35.8143 11.0653L29.4901 0.392366C29.407 0.273743 29.2905 0.17109 29.1562 0.102654C29.0241 0.0342179 28.8897 0.000760398 28.7405 0.000760398H20.5186C20.2863 0.000760398 20.0525 0.102654 19.8692 0.273743C19.7022 0.444833 19.6027 0.682838 19.6027 0.922363L19.6532 11.5793C19.6532 11.698 19.6695 11.8174 19.72 11.9215L19.7363 11.9383L19.7348 11.9367L19.7356 11.9352ZM35.5627 15.9775C35.4121 15.8756 35.2287 15.8231 35.0476 15.8231H20.5178C20.2855 15.8231 20.0518 15.9083 19.8848 16.0794C19.8016 16.1478 19.7341 16.2505 19.6851 16.3524C19.6346 16.4543 19.6183 16.5736 19.6183 16.6755V29.124C19.6183 29.2951 19.6688 29.4662 19.769 29.6016C19.8692 29.7369 20.0013 29.8578 20.1683 29.9247C20.3353 29.9916 20.5023 30.0099 20.6834 29.9932C20.8503 29.9597 21.0173 29.8913 21.1494 29.7719L35.6792 17.3401C35.8114 17.2215 35.9116 17.0671 35.9457 16.8961C35.9784 16.725 35.9784 16.5539 35.8952 16.3851C35.8284 16.214 35.7119 16.0786 35.5612 15.9927V15.976H35.5627V15.9775ZM16.0907 0.272983C15.9237 0.101893 15.6914 0 15.4413 0H7.21933C7.06866 0 6.93655 0.0334575 6.8037 0.101893C6.67159 0.170329 6.55359 0.272983 6.46972 0.391605L0.16261 11.0661C0.0631574 11.2014 0.0119464 11.3558 0.0119464 11.5269C0.0119464 11.698 0.0282745 11.85 0.1114 12.0044C0.194525 12.1588 0.311048 12.2774 0.445384 12.3633C0.57972 12.4492 0.744485 12.4987 0.911478 12.4987H15.425C15.6573 12.4987 15.891 12.3968 16.0744 12.2257C16.2414 12.0546 16.3408 11.8166 16.3408 11.5771L16.3735 0.920082C16.3735 0.80146 16.3571 0.682077 16.3067 0.577903C16.2562 0.473728 16.1909 0.373356 16.107 0.288191L16.0907 0.271462V0.272983ZM16.0907 16.0794C15.9074 15.925 15.6914 15.8231 15.4576 15.8231H0.911478C0.728157 15.8231 0.544837 15.8748 0.3964 15.9775C0.245735 16.0794 0.129954 16.2155 0.0624152 16.3699C-0.00512389 16.5242 -0.0207098 16.712 0.0297589 16.8808C0.0802277 17.0519 0.161868 17.204 0.296204 17.3249L14.8423 29.7567C14.9744 29.8753 15.1414 29.9445 15.3084 29.9779C15.4754 30.0114 15.6587 29.9779 15.8235 29.9095C15.989 29.8411 16.1226 29.7384 16.2228 29.5863C16.3223 29.4502 16.3735 29.2799 16.3735 29.1088V16.6603C16.3735 16.5417 16.3408 16.4391 16.3067 16.3372C16.2725 16.2353 16.1909 16.1493 16.107 16.0642L16.0907 16.0809V16.0794Z" fill="white"/>
</mask>
<g mask="url(#mask0_2823_34038)">
<path d="M41.3799 -9.02365H-5.47363V38.9795H41.3799V-9.02365Z" fill="url(#paint0_linear_2823_34038)"/>
</g>
<path d="M54.948 18.102C54.948 20.4867 53.3419 22.5108 50.1512 22.5108H43.2949V7.48992H50.1097C52.766 7.48992 54.496 8.86092 54.496 11.1611C54.496 12.723 53.693 13.8826 52.1084 14.3464C54.1672 14.8947 54.951 16.414 54.951 18.1013H54.948V18.102ZM46.3423 10.022V13.291H49.4514C50.9328 13.291 51.5102 12.5519 51.5102 11.6234C51.5102 10.695 50.9328 10.0198 49.5753 10.0198H46.3416V10.0213L46.3423 10.022ZM49.6146 19.873C51.2423 19.873 51.9614 19.0084 51.9614 17.8055C51.9614 16.5402 51.1584 15.8231 49.7586 15.8231H46.3401V19.873H49.6146Z" fill="black"/>
<path d="M55.895 22.5101V7.48992H58.7977V22.5101H55.895Z" fill="black"/>
<path d="M60.0347 22.5101V11.625H62.9374V22.5101H60.0347ZM60.0554 10.1893V7.4884H62.9581V10.1893H60.0554Z" fill="black"/>
<path d="M73.6043 15.211V22.5101H70.7016V15.8862C70.7016 14.7472 70.1865 14.0294 69.1579 14.0294C67.9229 14.0294 67.0775 15.0635 67.0775 16.6869V22.5101H64.1748V11.625H67.0174L67.0582 13.1009C67.7581 11.9192 68.7675 11.3497 70.1264 11.3497C72.3292 11.3497 73.6065 12.8477 73.6065 15.2103H73.605L73.6043 15.211Z" fill="black"/>
<path d="M82.026 11.6257H84.6006V22.6378C84.6006 25.5068 82.7266 27.0679 79.5352 27.0679C76.3438 27.0679 74.8609 25.6756 74.6546 23.3967H77.3316C77.4971 24.4088 78.2163 24.8529 79.4728 24.8529C81.1606 24.8529 81.6972 24.0522 81.6972 22.6796V21.1817C80.9758 22.0683 80.0094 22.5101 78.8138 22.5101C76.1575 22.5101 74.2642 20.2312 74.2642 16.8565C74.2642 13.4819 76.199 11.3505 78.8138 11.3505C80.1727 11.3505 81.2229 11.8987 81.9228 12.9739L82.026 11.6235V11.625V11.6257ZM81.8411 16.8565C81.8411 14.9578 80.8533 13.7351 79.4535 13.7351C78.0538 13.7351 77.0659 14.938 77.0659 16.8565C77.0659 18.775 78.0538 19.978 79.4535 19.978C80.8533 19.978 81.8411 18.7545 81.8411 16.8565Z" fill="black"/>
<path d="M85.4653 19.2617L88.1216 19.156C88.2871 20.2319 89.0063 20.8433 90.3868 20.8433C91.4778 20.8433 92.3016 20.4631 92.3016 19.6403C92.3016 19.0503 91.8697 18.7339 90.9019 18.5431L88.8022 18.1211C86.7219 17.699 85.7147 16.6033 85.7147 14.9357C85.7147 12.742 87.424 11.3497 90.0387 11.3497C92.6534 11.3497 94.3627 12.7002 94.6313 14.8301L92.0159 14.9357C91.8719 13.986 91.0889 13.418 89.9979 13.418C89.0293 13.418 88.4133 13.8818 88.4133 14.5776C88.4133 15.1471 88.8452 15.506 89.6075 15.6749L91.8919 16.1608C94.0131 16.6033 95.001 17.5949 95.001 19.2822C95.001 21.5809 93.1477 22.91 90.2858 22.91C87.424 22.91 85.7362 21.5816 85.4676 19.2609L85.4661 19.2624L85.4653 19.2617Z" fill="black"/>
</g>
<defs>
<linearGradient id="paint0_linear_2823_34038" x1="24.9531" y1="20.3878" x2="1.94226" y2="3.44719" gradientUnits="userSpaceOnUse">
<stop stop-color="#FF164E"/>
<stop offset="1" stop-color="#FF7AAA"/>
</linearGradient>
<clipPath id="clip0_2823_34038">
<rect width="95" height="30" fill="white"/>
</clipPath>
</defs>
</svg>
